<?xml version="1.0" encoding="utf-8"?>
<!-- Generator: Adobe Illustrator 14.0.0, SVG Export Plug-In . SVG Version: 6.00 Build 43363)  -->
<!DOCTYPE svg PUBLIC "-//W3C//DTD SVG 1.1//EN" "http://www.w3.org/Graphics/SVG/1.1/DTD/svg11.dtd">
<svg version="1.1" id="skyline" xmlns="http://www.w3.org/2000/svg" xmlns:xlink="http://www.w3.org/1999/xlink" x="0px" y="0px"
	 width="849.36px" height="188.275px" viewBox="0 0 849.36 188.275" enable-background="new 0 0 849.36 188.275"
	 xml:space="preserve">
<g>
	<path fill-rule="evenodd" clip-rule="evenodd" fill="#0098d4" d="M849.36,188.275c-283.141,0-566.213,0-849.36,0
		c0-3.28,0-6.56,0-9.84c2.546-1.214,4.414-3.106,6.96-4.32c0,0.801,0,1.601,0,2.4c2.131-0.989,4.258-1.982,5.76-3.6
		c0.16-5.28-0.32-11.2,0.24-16.08c2.163-0.412,4.199,0.56,6.24,0c0.968-0.266,1.582-1.426,2.64-1.681
		c3.143-0.757,6.536,0.547,10.8,0c0.155-4.324-0.314-9.273,0.24-13.199c1.28,0,2.56,0,3.84,0c0.15-0.729-0.308-2.067,0.24-2.4
		c2.32,0,4.64,0,6.96,0c0.089,0.951-0.22,2.3,0.24,2.88c1.238,0.682,3.254,0.586,4.8,0.96c0,1.6,0,3.2,0,4.8c7.84,0,15.68,0,23.52,0
		c0-14.399,0-28.8,0-43.2c3.463-2.376,6.318-5.361,13.2-4.319c0,15.6,0,31.2,0,46.8c5.6,0,11.2,0,16.8,0
		c0.566-4.719-0.783-8.291,0-12.24c0.328-1.651,1.909-3.945,2.88-5.76c2.891-5.401,6.129-11.022,9.12-16.32c2.4,0,4.8,0,7.2,0
		c0.77-1.79,1.471-3.648,2.64-5.04c3.2,0,6.4,0,9.6,0c0,1.521,0,3.04,0,4.561c4.08,0,8.16,0,12.24,0c0,10,0,20,0,30c4,0,8,0,12,0
		c-0.828-2.133-2.605-3.315-3.36-5.521c4.697-1.65,11.497-2.814,9.6-11.04c-0.839-1.081-2.761-1.079-2.64-3.12
		c2.221-1.539,5.053-2.467,7.44-3.84c0.717-3.917-1.265-5.135-2.4-7.199c1.409-0.854,1.873-1.761,3.36-2.641
		c1.144-0.677,3.439-0.976,3.84-2.16c0.966-2.857-2.55-2.779-2.4-5.04c0.178-2.688,4.278-2.589,6.48-4.08
		c0.562-2.962-2.551-2.249-2.64-4.56c2.44-2.76,6.992-3.408,7.44-8.16l0.36,0.48h0.6c0.267,2.373,1.903,3.377,2.88,5.04
		c2.069,0.33,3.695,1.104,4.32,2.88c-0.288,2.112-3.341,1.458-2.64,4.56c2.761,0.953,6.47,1.455,6.48,4.08
		c0.008,2.031-3.478,1.915-2.4,5.04c2.469,1.531,5.517,2.483,7.2,4.8c-1.326,1.795-3.054,3.187-2.4,6.96
		c0.952,1.101,7.368,2.601,7.44,4.561c0.061,1.64-3.702,1.111-2.64,4.319c1.563-0.488,2.872-2.336,4.32-3.84
		c1.029-1.067,3.7-3.173,4.08-4.56c0.708-2.583,0-6.68,0-10.08c0-9.341,0.189-20.9-0.24-29.521c0.664-0.215,2.253,0.493,2.16-0.479
		c-0.076-2.084,0.361-4.682-0.72-5.76c1.547-2.558,0.048-6.443,2.88-9.12c1.48-1.399,3.437-1.099,5.04-2.641c0-0.319,0-0.64,0-0.96
		l1.183,0.12l0.497-1.08c0.808-0.151,2.229,0.31,2.64-0.239l0.72,0.119l0.72,0.12c0.88,0,1.76,0,2.64,0l0.78,0.841l1.14-0.12
		c0,0.399,0,0.8,0,1.199c3.145,1.758,6.622,2.759,7.2,6.96c0.244,1.774-0.686,3.61,0.72,5.04c-1.265,0.896-0.525,3.795-0.72,5.761
		c0.182,0.697,1.978-0.218,2.16,0.479c-0.556,12.725-0.083,26.478-0.24,39.601c1.54,1.66,3.043,3.356,4.8,4.8
		c14.24,0,28.48,0,42.72,0c0.325-3.835,1.079-7.241,0.72-11.76c2.34-1.9,1.351-7.13,2.4-10.32l0.96-0.08l0.72-0.64
		c1.487,2.616,0.158,5.454,0.72,8.159c0.26,1.25,1.695,2.144,1.92,3.36c0.495,2.682-1.17,5.492,0.48,7.92
		c1.332-2.348,2.242-5.118,3.84-7.2c1.6,0,3.2,0,4.8,0c0.713-3.767-0.235-9.194,0.48-12.96c0.88,0,1.76,0,2.64,0
		c0.232,0.968-0.681,3.081,0.96,2.641c1.079-0.682,0.19-3.33,0.48-4.801c0.144-0.943-1.661,0.062-1.44-0.96c0-8.8,0-17.6,0-26.399
		c0.196-1.164,1.627-1.093,1.44-2.641l0.6,0.12l0.6,0.12c0.675,0.605,0.648,1.912,2.16,1.681c-0.555-3.605,1.341-9.662-1.44-11.04
		c1.611-0.47,1.303-2.857,1.68-4.561l0.257,0.429L312,55.556c1.746-1.935,1.068-6.292,1.2-9.84c0.545-0.175,1.872,0.432,1.68-0.48
		c1.18-2.66,0.818-6.861,1.44-10.08l1.08,0.12l1.08,0.12c0.46,3.22,0.31,7.05,1.2,9.84c-0.01,0.891,1.791-0.031,1.68,0.96
		c-0.007,3.527-0.29,7.33,1.2,9.36c0.375-0.985,0.23-2.489,0.72-3.36c0.345,2.935-0.133,6.693,1.92,7.92
		c-2.961-0.094-1.603,8.542-1.2,10.801c0.996-0.205,1.512-0.889,1.68-1.921l0.6,0.12l0.6,0.12c2.274,2.678,1.44,9.836,1.44,15.84
		c0,4.692,0,9.179,0,13.2c0.042,0.682-1.57-0.29-1.2,0.72c0.387,1.453-0.831,4.511,0.72,4.801c1.179,0.059-0.083-2.323,0.72-2.641
		c0.96,0,1.92,0,2.88,0c0,4.32,0,8.641,0,12.96c1.76,0,3.52,0,5.28,0c0.506,1.414,1.146,2.694,1.92,3.841
		c-0.092-1.899,1.382-3.093,1.68-5.04c0.59-3.858,0-9.185,0-14.16c0-4.722-0.857-10.257,0-14.16c0.342-1.555,1.993-2.161,2.4-3.84
		c0.288-1.188-0.157-2.524,0-3.84c0.109-0.924,0.612-1.896,0.72-2.881c0.363-3.315-0.442-6.979,0-10.56
		c0.111-0.901,0.609-1.738,0.72-2.64c0.677-5.491-0.655-11.055,0-15.841c0.155-1.136,0.817-2.076,0.96-3.119
		c0.33-2.409,0.301-5.607,0-7.92c-0.17-1.305-0.84-2.474-0.96-3.601c-0.884-8.302,4.75-13.351,12.24-14.399l0.12,0.359l0.36-0.12
		c7.346,0.353,12.829,6.188,12.24,13.681c-0.126,1.603-1.167,3.164-1.44,5.04c-0.414,2.834,0.347,6.479,0.72,9.84
		c0.613,5.521-0.596,11.825,0,16.8c0.121,1.007,0.624,1.942,0.72,2.88c0.547,5.331-0.394,10.475,0.48,15.12
		c0.657,0.523,1.951,2.767,2.4,1.92c1.496-4.299-0.371-10.545,0.48-15.84c0.194-1.208,0.988-1.876,1.2-3.36
		c0.739-5.172-0.83-11.267,0-16.8c0.318-2.126,1.425-5.379,0.96-8.88c-0.157-1.179-0.833-2.275-0.96-3.36
		c-0.967-8.217,3.71-12.905,12.24-14.399l0.36,0.12l0.36,0.119c6.426,0.396,11.423,4.812,12,11.04c0.351,3.786-1.92,7.704-1.2,12.48
		c0.18,1.193,1.032,2.242,1.2,3.36c0.803,5.358-0.926,11.274,0,17.039c0.167,1.04,0.83,1.897,0.96,2.881
		c0.668,5.046-0.867,10.026,0,14.399c0.434,2.189,2.559,4.318,3.36,6.48c25.601,0,51.199,0,76.8,0
		c9.25,12.109,17.745,24.976,27.12,36.96c0.725-1.596,1.508-3.133,2.4-4.561c1.68,0,3.359,0,5.04,0
		c-1.171-19.06,2.092-33.292,5.04-48l0.874,0.12l0.806-0.359c2.325,12.474,5.979,23.62,5.04,39.359
		c1.965,3.475,3.456,7.424,5.52,10.8c1.677-2.621,0.961-6.332,0.96-9.84c0-3.303,0.001-6.979,0-10.56
		c0-9.075,0.911-19.372-1.439-25.2c0.525-2.994,3.875-3.165,3.359-7.2c-0.562-0.638-2.006-0.394-2.64-0.96
		c-0.661-7.382,3.907-9.533,8.88-11.28c2.587-3.658,0.284-9.089,0.24-13.68c1.808-2.192,3.889-4.111,3.84-8.16l0.96,0.12l0.96,0.12
		c0.81,1.728,0.28,3.147,1.2,4.8c0.893,1.604,2.591,1.989,2.88,3.84c0.558,3.571-2.844,8.728,0,12.721
		c4.77,2.11,9.812,3.947,9.12,11.52c-1.308,0.709-2.421,0.245-2.88,1.44c-1.045,2.721,3.693,4.339,3.6,6.72
		c-2.311,4.789-1.439,13.997-1.439,22.08c0,6.154,0,12.352,0,18c6.441,3.227,12.943,6.358,19.68,9.6
		c2.094,1.008,4.623,2.545,6.72,2.88c3.25,0.521,6.096-0.382,9.601,0c0.187-5.712,1.217-14.332-1.44-18c0.96,0,1.92,0,2.88,0
		c0-2.079,0-4.159,0-6.239c-2.295-0.587-5.121-1.917-5.52-3.601c6.479,0,12.96,0,19.439,0c1.014-2.586,1.927-5.273,3.12-7.68
		c0.933,0.987,1.097,2.743,2.16,3.6c1.724-2.676,3.03-5.77,5.28-7.92c1.499,2.741,3.031,5.449,4.8,7.92
		c0.661-1.259,1.251-2.589,1.92-3.84c1.027,2.652,2.15,5.21,3.12,7.92c6.561,0,13.12,0,19.68,0c-1.18,1.939-3.312,2.927-5.76,3.601
		c0,2.08,0,4.16,0,6.239c0.887,0.153,2.391-0.311,2.88,0.24c-0.408,1.18-1.45,2.319-1.68,3.601c-1.5,8.361,1.121,19.887,0,28.8
		c1.2,0,2.399,0,3.6,0c4.133-4.907,7.891-10.189,12-15.12c2.041,2.469,4.519,4.896,7.2,7.68c1.8,1.868,6.365,5.528,6.96,7.92
		c1.369,5.504-1.01,11.678,0,18.24c5.263,0.303,9.675-0.246,13.2-1.68c0-2.88,0-5.76,0-8.641c2.455-4.185,4.553-8.728,7.2-12.72
		c15.28,0.16,31.199-0.32,46.08,0.24c0.158,2.081-0.318,4.798,0.239,6.479c4.119-1.481,8.875-2.324,12.96-3.84
		c0.378-3.004-0.5-6.138,0-9.12c0.245-1.455,1.259-2.609,1.44-3.84c0.383-2.596,0.131-5.445,0.24-7.92
		c0.32-7.289,0.121-14.378,0.479-22.08c-0.835-1.44-3.249-1.68-3.84-3.6c-0.491-1.597,0.351-3.601,0-6
		c1.702-0.139,0.694-2.986,0.96-4.561c-1.262-0.338-2.99-0.21-3.6-1.199c0.688-1.152,2.783-0.897,4.08-1.44
		c-0.341,0.021-0.68,0.04-0.721-0.24l0.36-1.053l-0.12-1.107c0.139-0.943-3.501-0.174-3.6-1.68c0.924-0.915,2.722-0.958,4.319-1.2
		c-1.595-1.406,0.007-4.156,1.681-5.04c-0.156-4.963,0.314-10.555-0.24-15.12c0.203-0.517,1.53,0.091,1.68-0.479l0.84,0.12
		l0.841,0.12c0.742-0.103,1.146-0.076,1.439,0.479c1.311,2.488-1.006,11.8,0,14.88c0.582,1.229,2.21,1.301,2.4,2.88
		c0.118,0.984-1,1.686-0.48,2.16c1.383,0.458,3.467,0.214,4.08,1.44c-0.577,1.026-3.871,0.603-3.84,1.439l-0.12,1.16l0.601,1
		c-0.055,0.346-0.717,0.084-0.721,0.48c1.657,0.183,3.615,0.065,4.08,1.439c-0.91,0.77-3.031,0.329-3.6,1.44
		c0.034,1.726-0.381,3.9,0.96,4.32c0,1.92,0,3.84,0,5.76c-1.072,1.567-3.083,2.196-4.08,3.84c0.102,2.977-0.135,6.149,0,9.12
		c0.323,7.114-0.392,14.513,0.479,20.88c0.354,2.579,2.034,6.701,1.2,10.8c4.479-1.088,8.771-2.378,13.2-3.6
		c4.212-1.162,8.695-3.101,13.2-3.601c4.77-0.529,9.475,0.387,15.12,0c0,10.16,0,20.32,0,30.48c0.717,0.482,2.264,0.136,3.359,0.24
		c0-7.2,0-14.4,0-21.601c7.921,0.16,16.48-0.319,24,0.24c0,10.24,0,20.48,0,30.72c4.4,0,8.801,0,13.2,0c0,1.44,0,2.88,0,4.32
		c1.443,0.157,3.517-0.316,4.561,0.24C849.36,180.596,849.36,184.436,849.36,188.275z M545.76,46.676
		c-2.067,0.16-0.892,3.663-1.2,6.24c0.881,0,1.761,0,2.641,0C546.991,50.223,547.963,46.505,545.76,46.676z M619.2,121.315
		c-7.285,1.005-3.739,13.488-4.561,21.36c3.84,0,7.681,0,11.521,0C625.546,133.993,629.077,119.954,619.2,121.315z M607.44,128.995
		c-8.002-2.857-5.391,9.374-5.761,13.681c2.721,0,5.44,0,8.16,0C609.284,137.79,611.456,130.43,607.44,128.995z M636.96,128.995
		c-7.524-2.687-5.655,7.718-5.76,13.681c2.72,0,5.439,0,8.16,0C638.802,137.791,640.979,130.431,636.96,128.995z"/>
	<path fill-rule="evenodd" clip-rule="evenodd" fill="#0098d4" d="M220.74,53.035l-1.14,0.12c-1.625-2.738-0.021-5.515,2.16-6.479
		c1.016-6.984,1.218-14.782,1.92-22.08l1.08,0.12l1.08,0.12c0.14,3.354,0.666,6.926,0.96,10.8c0.283,3.729-0.328,8.206,0.96,10.8
		c1.027,2.067,4.604,3.289,2.16,6.72h-1.2l-0.72,0.96c-0.608-0.842-2.213-0.465-2.64,0.24l-0.72-0.96l-0.96,0.72
		c-0.319-0.484-1.605-0.725-2.16-0.239L220.74,53.035z"/>
	<path fill-rule="evenodd" clip-rule="evenodd" fill="#0098d4" d="M356.64,13.796l-0.24,0.479c-1.152-0.229-1.863-1.562-1.2-2.88
		c2.363-2.028,4.478,2.261,1.68,2.88L356.64,13.796z"/>
	<g>
		<path fill-rule="evenodd" clip-rule="evenodd" fill="#0098d4" stroke="#0098d4" stroke-width="0.6882" stroke-linecap="round" d="
			M183.24,85.796c0.03-2.757,0.042-5.505,0-8.28"/>
		<path fill-rule="evenodd" clip-rule="evenodd" fill="#0098d4" stroke="#0098d4" stroke-width="1.7109" stroke-linecap="round" d="
			M220.783,61.195c-0.579-2.586-0.51-5.546-0.042-8.16"/>
		<path fill-rule="evenodd" clip-rule="evenodd" fill="#0098d4" stroke="#0098d4" stroke-width="1.2552" stroke-linecap="round" d="
			M224.76,24.716c0.009-4.652,0.126-9.277,0-13.92"/>
		<path fill-rule="evenodd" clip-rule="evenodd" fill="#0098d4" stroke="#0098d4" stroke-width="1.1319" stroke-linecap="round" d="
			M290.64,102.516c-0.026-1.454-0.046-2.904,0-4.36"/>
		<path fill-rule="evenodd" clip-rule="evenodd" fill="#0098d4" stroke="#0098d4" stroke-width="0.7842" stroke-linecap="round" d="
			M308.28,69.115c0.115-1.519,0.134-3.045,0-4.56"/>
		<path fill-rule="evenodd" clip-rule="evenodd" fill="#0098d4" stroke="#0098d4" stroke-width="0.5903" stroke-linecap="round" d="
			M311.4,53.035c0.148,0.853,0.307,1.828,0.137,2.709"/>
		<path fill-rule="evenodd" clip-rule="evenodd" fill="#0098d4" stroke="#0098d4" stroke-width="1.3229" stroke-linecap="round" d="
			M317.4,35.275c-0.041-3.836,0.047-7.707,0-11.52"/>
		<path fill-rule="evenodd" clip-rule="evenodd" fill="#0098d4" stroke="#0098d4" stroke-width="0.799" stroke-linecap="round" d="
			M326.28,69.115c0.054-1.518,0.13-3.046,0-4.56"/>
		<path fill-rule="evenodd" clip-rule="evenodd" fill="#0098d4" stroke="#0098d4" stroke-width="0.5091" stroke-linecap="round" d="
			M356.52,16.315c0.239-0.811,0.065-1.685,0.12-2.52"/>
		<path fill-rule="evenodd" clip-rule="evenodd" fill="#0098d4" stroke="#0098d4" stroke-width="0.7549" stroke-linecap="round" d="
			M386.28,18.956c0-0.881,0-1.761,0-2.641"/>
		<path fill-rule="evenodd" clip-rule="evenodd" fill="#0098d4" stroke="#0098d4" stroke-width="1.1079" stroke-linecap="round" d="
			M520.234,71.275c-0.051-1.453,0.094-2.894-0.034-4.319"/>
		<path fill-rule="evenodd" clip-rule="evenodd" fill="#0098d4" stroke="#0098d4" stroke-width="0.8882" stroke-linecap="round" d="
			M545.76,34.315c0.253-3.815,0.06-7.683,0.12-11.52"/>
		<path fill-rule="evenodd" clip-rule="evenodd" fill="#0098d4" stroke="#0098d4" stroke-width="1.8908" stroke-linecap="round" d="
			M752.28,80.155c0.871,0.124,1.759-0.052,2.64,0.027"/>
		<path fill-rule="evenodd" clip-rule="evenodd" fill="#0098d4" stroke="#0098d4" stroke-width="1.6886" stroke-linecap="round" d="
			M759.479,55.676c0-4.32,0-8.641,0-12.96"/>
		<path fill-rule="evenodd" clip-rule="evenodd" fill="#0098d4" stroke="#0098d4" stroke-width="1.8697" stroke-linecap="round" d="
			M766.547,80.183c-0.913,0.094-1.832-0.085-2.747,0.053"/>
		<path fill-rule="evenodd" clip-rule="evenodd" fill="#0098d4" stroke="#0098d4" stroke-width="1.4554" stroke-linecap="round" d="
			M224.64,59.995c0-2.199,0-4.399,0-6.6"/>
		<path fill-rule="evenodd" clip-rule="evenodd" fill="#0098d4" stroke="#0098d4" stroke-width="1.9378" stroke-linecap="round" d="
			M228.78,60.956c0.261-2.548,0.367-5.275-0.06-7.801"/>
	</g>
</g>
</svg>
