<?xml version="1.0" encoding="utf-8"?>
<!-- Made with ♥ in Minga.  -->
<!DOCTYPE svg PUBLIC "-//W3C//DTD SVG 1.1//EN" "http://www.w3.org/Graphics/SVG/1.1/DTD/svg11.dtd">
<svg version="1.1" id="Ebene_1" xmlns="http://www.w3.org/2000/svg" xmlns:xlink="http://www.w3.org/1999/xlink" x="0px" y="0px"
	 width="849.36px" height="188.275px" viewBox="0 0 679.88 152.5" enable-background="new 0 0 679.88 152.5" xml:space="preserve">
<g>
	<g>
		<defs>
			<rect id="SVGID_1_" width="679.88" height="153"/>
		</defs>
		<clipPath id="SVGID_2_">
			<use xlink:href="#SVGID_1_"  overflow="visible"/>
		</clipPath>
		<path clip-path="url(#SVGID_2_)" fill-rule="evenodd" clip-rule="evenodd" fill="#0098d4" d="M679.368,152.5H-0.12v-7.871
			c2.035-0.973,3.531-2.485,5.566-3.457v1.921c1.707-0.793,3.407-1.585,4.61-2.882c0.129-4.223-0.254-8.957,0.191-12.864
			c1.731-0.328,3.36,0.45,4.992,0c0.774-0.211,1.266-1.14,2.114-1.343c2.515-0.605,5.226,0.438,8.64,0
			c0.121-3.461-0.254-7.418,0.192-10.559h3.07c0.121-0.586-0.246-1.656,0.191-1.922h5.571c0.07,0.762-0.176,1.84,0.191,2.305
			c0.992,0.547,2.602,0.469,3.84,0.769v3.84h18.816V85.875c2.77-1.899,5.055-4.289,10.559-3.453v37.438h13.441
			c0.454-3.773-0.625-6.634,0-9.789c0.262-1.32,1.528-3.156,2.305-4.609c2.313-4.321,4.902-8.817,7.297-13.055h5.758
			c0.617-1.435,1.176-2.918,2.113-4.031h7.68v3.648h9.793v24h9.597c-0.66-1.707-2.082-2.652-2.687-4.418
			c3.758-1.32,9.199-2.25,7.68-8.832c-0.672-0.863-2.208-0.863-2.114-2.496c1.778-1.23,4.043-1.974,5.953-3.07
			c0.575-3.137-1.011-4.11-1.918-5.762c1.125-0.685,1.497-1.406,2.688-2.113c0.914-0.539,2.75-0.782,3.07-1.727
			c0.774-2.285-2.039-2.223-1.918-4.031c0.141-2.152,3.422-2.074,5.184-3.266c0.449-2.367-2.043-1.797-2.113-3.648
			c1.953-2.207,5.593-2.727,5.953-6.527l0.289,0.382h0.476c0.215,1.899,1.524,2.703,2.305,4.035
			c1.656,0.262,2.957,0.883,3.457,2.301c-0.23,1.692-2.672,1.168-2.113,3.649c2.211,0.761,5.176,1.164,5.183,3.265
			c0.008,1.625-2.781,1.532-1.918,4.032c1.977,1.227,4.414,1.988,5.758,3.839c-1.058,1.438-2.441,2.551-1.918,5.571
			c0.762,0.879,5.895,2.078,5.953,3.648c0.047,1.309-2.965,0.887-2.113,3.452c1.25-0.39,2.297-1.866,3.457-3.069
			c0.82-0.855,2.957-2.539,3.262-3.648c0.566-2.066,0-5.344,0-8.066c0-7.474,0.152-16.719-0.192-23.613
			c0.532-0.176,1.805,0.39,1.731-0.387c-0.063-1.664,0.285-3.742-0.578-4.605c1.238-2.047,0.039-5.157,2.304-7.297
			c1.184-1.121,2.75-0.879,4.032-2.113v-0.766l0.945,0.094l0.398-0.864c0.649-0.121,1.786,0.246,2.114-0.191l0.574,0.094
			l0.578,0.097h2.109l0.625,0.672l0.915-0.094v0.958c2.515,1.406,5.296,2.207,5.757,5.57c0.196,1.418-0.547,2.887,0.578,4.031
			c-1.011,0.715-0.421,3.035-0.578,4.609c0.145,0.555,1.582-0.175,1.731,0.383c-0.446,10.18-0.067,21.18-0.196,31.68
			c1.235,1.328,2.438,2.684,3.84,3.84h34.176c0.262-3.067,0.863-5.793,0.578-9.406c1.871-1.523,1.082-5.707,1.918-8.258l0.77-0.063
			l0.578-0.511c1.187,2.089,0.125,4.363,0.574,6.527c0.207,1,1.356,1.715,1.535,2.687c0.399,2.146-0.933,4.392,0.387,6.336
			c1.062-1.879,1.793-4.093,3.07-5.761h3.84c0.57-3.012-0.187-7.355,0.383-10.368h2.113c0.184,0.774-0.547,2.465,0.77,2.114
			c0.863-0.547,0.148-2.664,0.383-3.84c0.113-0.758-1.329,0.047-1.153-0.77V59.187c0.156-0.929,1.301-0.871,1.153-2.109l0.48,0.094
			l0.48,0.097c0.54,0.485,0.516,1.528,1.727,1.344c-0.445-2.883,1.074-7.73-1.152-8.832c1.289-0.375,1.043-2.285,1.343-3.648
			l0.207,0.343l0.372-0.152c1.394-1.547,0.851-5.031,0.957-7.871c0.437-0.141,1.5,0.344,1.343-0.383
			c0.946-2.129,0.657-5.488,1.153-8.066l0.867,0.097l0.863,0.094c0.367,2.578,0.246,5.641,0.957,7.875
			c-0.008,0.711,1.434-0.027,1.348,0.766c-0.008,2.824-0.235,5.863,0.957,7.488c0.301-0.785,0.183-1.992,0.578-2.688
			c0.273,2.348-0.105,5.356,1.535,6.336c-2.367-0.074-1.281,6.836-0.961,8.641c0.797-0.164,1.211-0.711,1.344-1.535l0.48,0.094
			l0.481,0.097c1.82,2.141,1.152,7.867,1.152,12.672V80.5c0.035,0.547-1.258-0.231-0.961,0.578c0.309,1.16-0.664,3.608,0.578,3.84
			c0.942,0.047-0.066-1.86,0.575-2.114h2.304v10.368h4.223c0.406,1.132,0.918,2.156,1.535,3.074c-0.07-1.521,1.11-2.473,1.348-4.031
			c0.469-3.086,0-7.348,0-11.329c0-3.777-0.688-8.207,0-11.328c0.273-1.246,1.594-1.73,1.918-3.074c0.23-0.949-0.125-2.019,0-3.07
			c0.086-0.739,0.488-1.516,0.578-2.305c0.289-2.652-0.356-5.582,0-8.449c0.086-0.719,0.484-1.391,0.574-2.11
			c0.543-4.394-0.523-8.843,0-12.675c0.125-0.907,0.652-1.66,0.77-2.492c0.261-1.93,0.238-4.489,0-6.336
			c-0.137-1.047-0.672-1.981-0.77-2.883c-0.707-6.641,3.801-10.68,9.793-11.52l0.094,0.289l0.289-0.097
			c5.875,0.281,10.262,4.949,9.793,10.945c-0.102,1.281-0.934,2.531-1.152,4.031c-0.333,2.27,0.277,5.184,0.574,7.871
			c0.492,4.418-0.477,9.461,0,13.442c0.097,0.804,0.5,1.554,0.578,2.304c0.437,4.266-0.317,8.379,0.383,12.094
			c0.527,0.422,1.562,2.215,1.922,1.539c1.195-3.441-0.297-8.437,0.382-12.672c0.157-0.968,0.789-1.504,0.961-2.691
			c0.59-4.137-0.664-9.012,0-13.438c0.254-1.703,1.141-4.304,0.766-7.105c-0.125-0.941-0.664-1.82-0.766-2.688
			c-0.773-6.574,2.965-10.324,9.789-11.519l0.289,0.098l0.289,0.093c5.141,0.317,9.137,3.852,9.598,8.832
			c0.281,3.028-1.535,6.164-0.957,9.985c0.145,0.953,0.824,1.793,0.957,2.687c0.645,4.285-0.738,9.02,0,13.633
			c0.137,0.832,0.664,1.516,0.77,2.305c0.535,4.035-0.692,8.019,0,11.519c0.347,1.75,2.047,3.453,2.687,5.184h61.441
			c7.398,9.687,14.195,19.979,21.695,29.565c0.582-1.276,1.207-2.504,1.922-3.647h4.031c-0.938-15.246,1.672-26.633,4.031-38.399
			l0.699,0.094l0.645-0.285c1.859,9.977,4.781,18.895,4.031,31.484c1.574,2.782,2.766,5.942,4.418,8.642
			c1.34-2.095,0.766-5.063,0.766-7.871c0-2.642,0-5.582,0-8.449c0-7.258,0.73-15.496-1.148-20.16
			c0.418-2.395,3.098-2.532,2.688-5.758c-0.453-0.512-1.605-0.317-2.113-0.77c-0.531-5.906,3.125-7.625,7.102-9.023
			c2.07-2.926,0.23-7.27,0.195-10.946c1.445-1.75,3.109-3.285,3.07-6.527l0.77,0.098l0.766,0.093c0.648,1.383,0.227,2.52,0.961,3.84
			c0.715,1.285,2.074,1.594,2.305,3.075c0.445,2.855-2.277,6.98,0,10.175c3.816,1.688,7.848,3.16,7.297,9.215
			c-1.047,0.57-1.938,0.199-2.305,1.153c-0.836,2.179,2.953,3.472,2.879,5.378c-1.848,3.829-1.152,11.196-1.152,17.664v14.399
			c5.152,2.582,10.355,5.086,15.746,7.68c1.676,0.808,3.699,2.035,5.375,2.304c2.602,0.418,4.879-0.304,7.68,0
			c0.152-4.569,0.977-11.465-1.152-14.397h2.305v-4.992c-1.836-0.469-4.098-1.535-4.414-2.883h15.551
			c0.812-2.067,1.543-4.219,2.496-6.145c0.746,0.793,0.879,2.196,1.727,2.883c1.379-2.14,2.426-4.617,4.227-6.336
			c1.199,2.192,2.422,4.36,3.84,6.336c0.527-1.008,1-2.074,1.535-3.074c0.82,2.121,1.719,4.168,2.496,6.336h15.742
			c-0.941,1.551-2.648,2.344-4.605,2.883v4.992c0.707,0.121,1.91-0.25,2.301,0.19c-0.324,0.942-1.16,1.856-1.344,2.88
			c-1.199,6.688,0.898,15.909,0,23.038h2.883c3.305-3.926,6.312-8.147,9.598-12.094c1.633,1.974,3.617,3.918,5.762,6.146
			c1.438,1.491,5.09,4.422,5.566,6.336c1.098,4.401-0.809,9.34,0,14.59c4.211,0.242,7.742-0.196,10.562-1.344v-6.91
			c1.961-3.353,3.641-6.984,5.758-10.181c12.223,0.13,24.961-0.254,36.863,0.196c0.129,1.664-0.254,3.835,0.191,5.184
			c3.297-1.188,7.102-1.859,10.367-3.074c0.305-2.402,0.058-3.73,0.456-6.117c0.199-1.164,0.552-3.266,0.696-4.25
			c0.309-2.078,0.105-4.356,0.195-6.336c0.254-5.832,0.094-17.504,0.383-23.664c-0.668-1.153-2.602-1.344-3.074-2.879
			c-0.391-1.278,0.281,1.117,0-0.801c1.363-0.113,0.555,0.609,0.77-0.648c-1.012-0.274-1.395-0.168-1.879-0.961
			c0.547-0.922,1.227-0.719,2.262-1.153c-0.273,0.02-0.543,0.032-0.578-0.191l0.289-0.844l-0.094-0.883
			c0.109-0.754-1.801-0.14-1.883-1.343c0.742-0.735,1.788-0.813,3.065-1.004c0,0-2.413-1.252-3.069-2.59
			c-0.202-0.412-0.735-6.316,0.417-7.292c1.109-0.94,3.155-1.141,3.361-1.25c-0.125-3.972,0.276-6.302-0.165-9.954
			c0.164-0.414,1.223,0.074,1.344-0.383l0.672,0.098l0.672,0.093c0.594-0.082,1.108-0.115,1.152,0.383
			c0.172,1.936-0.239,6.785-0.055,9.555c0.03,0.446,2.277,0.374,3.144,1.042c1.238,0.955,0.285,7.047,0.375,7.792
			c0.094,0.785-2.949,2.167-2.535,2.545c1.105,0.367,2.38,0.176,2.872,1.156c-0.461,0.82-2.098,0.48-2.074,1.152l-0.094,0.926
			l0.48,0.801c-0.043,0.277-0.574,0.066-0.578,0.383c1.328,0.148,1.895,0.05,2.266,1.152c-0.73,0.617-1.426,0.262-1.879,1.152
			c0.027,1.379-0.305,0.121,0.766,0.457v0.606c-0.855,1.254-2.465,1.758-3.262,3.074c0.078,2.379-0.109,4.918,0,7.293
			c0.258,5.69-0.316,17.612,0.383,22.707c0.281,2.062,0.957,8.637,0.957,8.637c3.586-0.867,7.02-1.903,10.562-2.879
			c3.367-0.931,6.957-2.481,10.559-2.879c3.816-0.427,7.582,0.309,12.098,0v24.383c0.574,0.387,1.809,0.108,2.688,0.19v-17.28
			c6.336,0.129,13.184-0.254,19.199,0.19v24.579h10.559v3.457c1.156,0.125,2.812-0.254,3.648,0.191
			C679.368,146.355,679.368,149.429,679.368,152.5L679.368,152.5z M436.489,39.222c-1.656,0.125-0.715,2.93-0.961,4.993h2.113
			C437.474,42.058,438.251,39.086,436.489,39.222L436.489,39.222z M495.239,98.933c-5.828,0.802-2.992,10.789-3.648,17.086h9.219
			C500.317,109.074,503.142,97.843,495.239,98.933L495.239,98.933z M485.833,105.078c-6.402-2.289-4.312,7.496-4.609,10.94h6.527
			C487.306,112.113,489.044,106.222,485.833,105.078L485.833,105.078z M509.446,105.078c-6.02-2.153-4.523,6.172-4.605,10.94h6.527
			C510.923,112.113,512.661,106.226,509.446,105.078L509.446,105.078z M509.446,105.078"/>
		<path clip-path="url(#SVGID_2_)" fill-rule="evenodd" clip-rule="evenodd" fill="#0098d4" d="M176.474,44.308l-0.914,0.098
			c-1.301-2.191-0.016-4.414,1.726-5.184c0.817-5.589,0.977-11.828,1.539-17.664l0.864,0.094l0.863,0.098
			c0.113,2.683,0.531,5.539,0.769,8.64c0.227,2.981-0.265,6.563,0.766,8.637c0.824,1.656,3.684,2.633,1.731,5.379h-0.961
			l-0.579,0.766c-0.484-0.672-1.769-0.372-2.109,0.191l-0.578-0.766l-0.766,0.575c-0.257-0.387-1.285-0.579-1.73-0.192
			L176.474,44.308z M176.474,44.308"/>
		<path clip-path="url(#SVGID_2_)" fill-rule="evenodd" clip-rule="evenodd" fill="#0098d4" d="M285.192,12.918l-0.191,0.382
			c-0.922-0.183-1.492-1.25-0.961-2.304c1.891-1.621,3.582,1.808,1.344,2.304L285.192,12.918z M285.192,12.918"/>
	</g>
	<path fill-rule="evenodd" clip-rule="evenodd" fill="#0098d4" d="M146.474,70.515c0.023-2.203,0.031-4.402,0-6.621"/>
	<path fill="none" stroke="#0098d4" stroke-width="0.5506" stroke-linecap="round" d="M146.474,70.516
		c0.023-2.204,0.031-4.403,0-6.621"/>
	<path fill-rule="evenodd" clip-rule="evenodd" fill="#0098d4" d="M176.505,50.836c-0.461-2.071-0.406-4.438-0.031-6.528"/>
	<path fill="none" stroke="#0098d4" stroke-width="1.3687" stroke-linecap="round" d="M176.505,50.836
		c-0.461-2.07-0.406-4.438-0.031-6.527"/>
	<path fill-rule="evenodd" clip-rule="evenodd" fill="#0098d4" d="M179.689,21.652c0.007-3.723,0.101-7.422,0-11.137"/>
	<g>
		<defs>
			<rect id="SVGID_3_" width="679.88" height="153"/>
		</defs>
		<clipPath id="SVGID_4_">
			<use xlink:href="#SVGID_3_"  overflow="visible"/>
		</clipPath>
		<path clip-path="url(#SVGID_4_)" fill="none" stroke="#0098d4" stroke-width="1.0042" stroke-linecap="round" d="M179.689,21.652
			c0.007-3.722,0.101-7.422,0-11.136"/>
	</g>
	<path fill-rule="evenodd" clip-rule="evenodd" fill="#0098d4" d="M232.392,83.894c-0.02-1.163-0.035-2.323,0-3.487"/>
	<path fill="none" stroke="#0098d4" stroke-width="0.9055" stroke-linecap="round" d="M232.392,83.895
		c-0.02-1.165-0.035-2.325,0-3.489"/>
	<path fill-rule="evenodd" clip-rule="evenodd" fill="#0098d4" d="M246.505,57.172c0.09-1.215,0.105-2.438,0-3.649"/>
	<path fill="none" stroke="#0098d4" stroke-width="0.6274" stroke-linecap="round" d="M246.505,57.172
		c0.09-1.215,0.105-2.438,0-3.649"/>
	<path fill-rule="evenodd" clip-rule="evenodd" fill="#0098d4" d="M249.001,44.308c0.117,0.684,0.246,1.461,0.109,2.168"/>
	<path fill="none" stroke="#0098d4" stroke-width="0.4722" stroke-linecap="round" d="M249.001,44.309
		c0.117,0.683,0.246,1.461,0.109,2.168"/>
	<path fill-rule="evenodd" clip-rule="evenodd" fill="#0098d4" d="M253.802,30.101c-0.035-3.07,0.035-6.168,0-9.218"/>
	<path fill="none" stroke="#0098d4" stroke-width="1.0583" stroke-linecap="round" d="M253.802,30.102
		c-0.035-3.071,0.035-6.168,0-9.219"/>
	<path fill-rule="evenodd" clip-rule="evenodd" fill="#0098d4" d="M260.903,57.172c0.043-1.215,0.106-2.438,0-3.649"/>
	<path fill="none" stroke="#0098d4" stroke-width="0.6392" stroke-linecap="round" d="M260.903,57.172
		c0.043-1.215,0.106-2.438,0-3.649"/>
	<path fill-rule="evenodd" clip-rule="evenodd" fill="#0098d4" d="M285.095,14.933c0.191-0.648,0.055-1.347,0.097-2.015"/>
	<path fill="none" stroke="#0098d4" stroke-width="0.4073" stroke-linecap="round" d="M285.095,14.934
		c0.191-0.649,0.055-1.348,0.097-2.016"/>
	
		<line fill="none" stroke="#0098d4" stroke-width="0.6039" stroke-linecap="round" x1="308.903" y1="17.047" x2="308.903" y2="14.934"/>
	<path fill-rule="evenodd" clip-rule="evenodd" fill="#0098d4" d="M416.067,58.898c-0.043-1.16,0.074-2.312-0.027-3.453"/>
	<path fill="none" stroke="#0098d4" stroke-width="0.8863" stroke-linecap="round" d="M416.067,58.897
		c-0.043-1.16,0.074-2.312-0.027-3.453"/>
	<path fill-rule="evenodd" clip-rule="evenodd" fill="#0098d4" d="M436.489,29.332c0.199-3.051,0.047-6.145,0.094-9.215"/>
	<path fill="none" stroke="#0098d4" stroke-width="0.7106" stroke-linecap="round" d="M436.489,29.332
		c0.199-3.051,0.047-6.144,0.094-9.215"/>
	<path fill-rule="evenodd" clip-rule="evenodd" fill="#0098d4" d="M602.704,67.004c0.695,0.097,0.406-0.043,1.113,0.023"/>
	<path fill="none" stroke="#0098d4" stroke-width="1.5126" stroke-linecap="round" d="M602.704,67.004
		c0.695,0.098,0.406-0.043,1.113,0.023"/>
	
		<line fill="none" stroke="#0098d4" stroke-width="1.3509" stroke-linecap="round" x1="607.462" y1="42.422" x2="607.462" y2="21.055"/>
	<path fill-rule="evenodd" clip-rule="evenodd" fill="#0098d4" d="M612.118,67.027c-0.73,0.074-0.465-0.07-1.199,0.043"/>
	<path fill="none" stroke="#0098d4" stroke-width="1.4958" stroke-linecap="round" d="M612.118,67.027
		c-0.73,0.075-0.465-0.07-1.199,0.043"/>
	
		<line fill="none" stroke="#0098d4" stroke-width="1.1643" stroke-linecap="round" x1="179.591" y1="49.875" x2="179.591" y2="44.598"/>
	<path fill-rule="evenodd" clip-rule="evenodd" fill="#0098d4" d="M182.903,50.644c0.211-2.039,0.293-4.219-0.046-6.238"/>
	<path fill="none" stroke="#0098d4" stroke-width="1.5502" stroke-linecap="round" d="M182.903,50.645
		c0.211-2.04,0.293-4.219-0.046-6.239"/>
</g>
</svg>
